<?xml version="1.0" encoding="UTF-8" standalone="no"?>
<!-- Created with Inkscape (http://www.inkscape.org/) -->

<svg
   xmlns:dc="http://purl.org/dc/elements/1.1/"
   xmlns:cc="http://creativecommons.org/ns#"
   xmlns:rdf="http://www.w3.org/1999/02/22-rdf-syntax-ns#"
   xmlns:svg="http://www.w3.org/2000/svg"
   xmlns="http://www.w3.org/2000/svg"
   xmlns:sodipodi="http://sodipodi.sourceforge.net/DTD/sodipodi-0.dtd"
   xmlns:inkscape="http://www.inkscape.org/namespaces/inkscape"
   width="1000"
   height="1400"
   id="svg11823"
   version="1.1"
   inkscape:version="0.49 r12590 custom"
   sodipodi:docname="lurc-logo.svg"
   viewBox="0 0 1000 1400">
  <defs
     id="defs11825" />
  <sodipodi:namedview
     id="base"
     pagecolor="#ffffff"
     bordercolor="#666666"
     borderopacity="1.0"
     inkscape:pageopacity="1"
     inkscape:pageshadow="2"
     inkscape:zoom="0.42092503"
     inkscape:cx="586.26683"
     inkscape:cy="-1292.3139"
     inkscape:document-units="px"
     inkscape:current-layer="layer1"
     showgrid="false"
     borderlayer="true"
     inkscape:showpageshadow="false"
     showguides="true"
     inkscape:guide-bbox="true"
     inkscape:snap-global="false"
     inkscape:snap-bbox="true"
     inkscape:bbox-paths="true"
     inkscape:bbox-nodes="true"
     inkscape:snap-bbox-edge-midpoints="true"
     inkscape:snap-bbox-midpoints="true"
     inkscape:snap-intersection-paths="true"
     inkscape:object-paths="true"
     inkscape:object-nodes="true"
     inkscape:snap-smooth-nodes="true"
     inkscape:snap-midpoints="true"
     inkscape:snap-object-midpoints="true"
     inkscape:snap-center="true"
     inkscape:snap-page="true" />
  <metadata
     id="metadata11828">
    <rdf:RDF>
      <cc:Work
         rdf:about="">
        <dc:format>image/svg+xml</dc:format>
        <dc:type
           rdf:resource="http://purl.org/dc/dcmitype/StillImage" />
        <dc:title></dc:title>
      </cc:Work>
    </rdf:RDF>
  </metadata>
  <g
     inkscape:label="Layer 1"
     inkscape:groupmode="layer"
     id="layer1"
     transform="translate(0,347.63782)">
    <path
       style="color:#000000;fill:#4d4f53;fill-opacity:1;fill-rule:nonzero;stroke:none;stroke-width:16;marker:none;visibility:visible;display:inline;overflow:visible;enable-background:accumulate"
       d="M -186.01562 2633.7812 C -199.54939 2633.892 -213.15985 2633.8739 -226.59766 2635.0488 C -230.43652 2635.4852 -235.4797 2635.4235 -237.78906 2637.8535 C -238.15469 2638.2067 -238.38449 2638.5819 -238.49805 2638.9648 C -238.57175 2639.2172 -238.59757 2650.091 -238.57617 2650.3457 C -238.44132 2651.9467 -236.5062 2653.5101 -234.07812 2653.9922 C -233.41583 2654.0737 -232.7494 2654.1346 -232.08594 2654.2109 C -239.54036 2658.1008 -243.9707 2662.9506 -243.9707 2668.2109 L -243.9707 2793.7871 C -243.9707 2806.5874 -217.77659 2816.9629 -185.46484 2816.9629 C -153.1531 2816.9629 -126.95898 2806.5874 -126.95898 2793.7871 L -126.95898 2668.2109 C -126.95898 2662.9875 -131.32404 2658.1689 -138.68359 2654.293 C -138.18649 2654.2262 -137.68937 2654.162 -137.19336 2654.0898 C -134.29267 2653.8948 -132.48386 2652.1164 -132.35352 2650.3516 C -132.33542 2650.1064 -132.35024 2639.2423 -132.39844 2639.002 C -132.60204 2637.988 -133.41047 2637.0553 -134.94141 2636.5273 C -151.46298 2633.2471 -168.97798 2634.1611 -186.01562 2633.7812 z M -185.4082 2637.2598 C -158.79586 2637.2598 -137.2207 2638.3055 -137.2207 2639.5957 C -137.2207 2640.8858 -158.79586 2641.9336 -185.4082 2641.9336 C -212.02056 2641.9336 -233.59375 2640.8858 -233.59375 2639.5957 C -233.59375 2638.3055 -212.02056 2637.2598 -185.4082 2637.2598 z M -215.57617 2683.332 C -215.37482 2683.333 -215.1759 2683.347 -214.98242 2683.377 C -207.90908 2685.2439 -201.24179 2688.706 -195.70898 2693.502 C -194.17525 2695.5946 -192.87106 2697.9149 -192.26953 2700.457 C -191.73344 2703.0156 -191.76558 2705.7685 -192.72266 2708.2266 C -193.06283 2709.3371 -193.90512 2710.1435 -194.55859 2711.0684 C -191.84215 2713.0645 -189.12362 2715.0586 -186.54492 2717.1387 C -185.93948 2712.5406 -185.04936 2707.9545 -183.27734 2703.4473 C -182.56608 2701.8527 -182.25642 2699.7323 -179.14844 2699.0176 C -176.56161 2698.9177 -174.52025 2700.0015 -172.99609 2701.043 C -177.07585 2710.8239 -181.15463 2720.6057 -185.23438 2730.3867 C -183.90754 2730.3213 -182.58749 2729.9742 -181.41211 2729.3711 C -176.13532 2725.7665 -169.56085 2723.4977 -163.13867 2724.6992 C -158.24764 2725.7512 -153.44769 2727.6021 -149.43945 2730.6465 C -144.1976 2734.4208 -141.27611 2740.5834 -139.98633 2746.7676 C -137.20163 2760.9287 -139.86053 2776.3196 -148.11719 2788.2656 C -150.50548 2791.4473 -152.97705 2794.9247 -156.74219 2796.5625 C -161.70329 2798.3645 -166.98237 2796.8549 -172.07617 2796.7559 C -177.02663 2796.4767 -181.89641 2797.9516 -186.26367 2800.1914 C -189.65445 2801.7627 -193.54737 2803.388 -197.30078 2802.1133 C -213.40438 2796.7197 -226.24487 2783.0598 -231.37695 2766.959 C -234.23819 2757.9821 -234.8193 2747.8949 -231.10156 2739.0723 C -228.72454 2732.5524 -222.87813 2727.7381 -216.34375 2725.7285 C -207.87487 2722.8443 -198.38242 2724.4572 -190.67578 2728.7344 C -189.98634 2729.2859 -189.2138 2729.6903 -188.39844 2729.9648 C -188.01153 2727.9722 -187.63566 2725.9785 -187.30859 2723.9824 C -187.16922 2722.5938 -187.02669 2721.2047 -186.87109 2719.8145 C -189.5437 2717.1516 -192.38455 2714.7388 -195.2168 2712.3125 C -195.39287 2712.5781 -195.62257 2712.807 -195.91797 2712.9531 C -198.34961 2714.0063 -201.12744 2713.5853 -203.57617 2712.8066 C -208.98984 2710.9538 -214.02659 2707.4949 -217.01562 2702.5352 C -218.70875 2699.4838 -218.77154 2695.896 -218.95898 2692.5 C -218.93558 2690.1401 -219.74283 2687.7177 -218.95117 2685.4082 C -218.50336 2683.997 -216.98557 2683.319 -215.57617 2683.332 z "
       transform="translate(0,-347.63782)"
       id="path6397" />
    <text
       xml:space="preserve"
       style="font-size:87.19662476px;font-style:normal;font-variant:normal;font-weight:600;font-stretch:normal;text-align:center;line-height:125%;writing-mode:lr-tb;text-anchor:middle;color:#000000;fill:#000000;fill-opacity:1;fill-rule:nonzero;stroke:none;stroke-width:16;marker:none;visibility:visible;display:inline;overflow:visible;enable-background:accumulate;font-family:Open Sans;-inkscape-font-specification:Open Sans Semi-Bold"
       x="13.270831"
       y="2452.7373"
       id="text6295"
       sodipodi:linespacing="125%"><tspan
         sodipodi:role="line"
         id="tspan6297"
         x="13.270832"
         y="2452.7373"
         style="font-size:211.91265869px;font-style:normal;font-variant:normal;font-weight:normal;font-stretch:normal;font-family:Medula One;-inkscape-font-specification:Medula One">LUrC</tspan></text>
    <g
       id="g6374"
       transform="matrix(0.8608361,0,0,0.8608361,559.22062,355.19883)">
      <path
         inkscape:connector-curvature="0"
         id="rect6343"
         d="m 747.11312,2208.5985 c 73.33434,0 132.78321,23.5521 132.78321,52.6035 l 0,285.0059 c -1e-5,29.0514 -59.44887,52.6016 -132.78321,52.6016 -73.33434,0 -132.78515,-23.5502 -132.78515,-52.6016 l 0,-285.0059 c 0,-29.0514 59.45081,-52.6035 132.78515,-52.6035 z"
         style="color:#000000;fill:#bcbdbc;fill-opacity:1;fill-rule:nonzero;stroke:none;stroke-width:16;marker:none;visibility:visible;display:inline;overflow:visible;enable-background:accumulate" />
      <path
         inkscape:connector-curvature="0"
         id="path6304"
         d="m 745.86187,2183.0625 c 38.66844,0.8621 78.42103,-1.2133 115.91817,6.2313 3.47461,1.1985 5.30887,3.3139 5.77095,5.6152 0.10952,0.5454 0.14214,25.2021 0.10103,25.7586 -0.29583,4.0053 -4.40059,8.0449 -10.98396,8.4875 -32.14994,4.6779 -65.34475,4.2834 -98.073,4.7864 -40.6814,0.6252 -81.73256,-0.074 -121.81734,-5.008 -5.51075,-1.0941 -9.89976,-4.6429 -10.20581,-8.2765 -0.0486,-0.5781 0.008,-25.2588 0.17642,-25.8316 0.25772,-0.8691 0.78064,-1.7207 1.61047,-2.5224 5.2413,-5.5151 16.6829,-5.3749 25.39552,-6.3653 30.49831,-2.6667 61.39149,-2.6239 92.10755,-2.8752 z m 1.37978,4.7981 c -60.39909,0 -109.3631,2.6935 -109.3631,6.0165 0,3.3229 48.96401,6.0175 109.3631,6.0175 60.39906,0 109.36157,-2.6946 109.36157,-6.0175 0,-3.323 -48.96251,-6.0165 -109.36157,-6.0165 z"
         style="color:#000000;fill:#bcbdbc;fill-opacity:1;fill-rule:nonzero;stroke:none;stroke-width:16;marker:none;visibility:visible;display:inline;overflow:visible;enable-background:accumulate" />
    </g>
    <g
       id="g6370"
       transform="matrix(0.85842649,0,0,0.85842649,136.85325,355.98463)">
      <path
         sodipodi:nodetypes="cssscc"
         inkscape:connector-curvature="0"
         id="rect6361"
         d="m 908.57622,2414.3297 13.34655,156.1644 c 0.71443,8.3594 35.9662,15.187 80.33333,15.187 44.367,0 79.6188,-6.8276 80.3332,-15.187 l 13.3466,-156.1644 z"
         style="color:#000000;fill:#bcbdbc;fill-opacity:1;fill-rule:nonzero;stroke:none;stroke-width:16;marker:none;visibility:visible;display:inline;overflow:visible;enable-background:accumulate" />
      <path
         style="color:#000000;fill:#bcbdbc;fill-opacity:1;fill-rule:nonzero;stroke:none;stroke-width:16;marker:none;visibility:visible;display:inline;overflow:visible;enable-background:accumulate"
         d="m 1003.2985,2372.0961 c -32.242,0.8852 -65.38797,-1.2461 -96.65332,6.3988 -2.89719,1.2308 -4.42656,3.4032 -4.8119,5.7664 -0.0913,0.5601 -0.11852,25.8802 -0.0839,26.4517 0.24661,4.1131 3.66922,8.2613 9.15844,8.7159 26.80678,4.8037 54.4849,4.3987 81.77382,4.9152 33.92046,0.642 68.14916,-0.076 101.57206,-5.1428 4.595,-1.1236 8.2546,-4.7678 8.5097,-8.4992 0.041,-0.5936 -0.01,-25.9385 -0.1471,-26.5267 -0.2148,-0.8924 -0.6509,-1.7669 -1.3428,-2.5902 -4.3702,-5.6636 -13.9103,-5.5196 -21.1749,-6.5367 -25.4297,-2.7384 -51.1887,-2.6945 -76.7998,-2.9524 z m -1.1505,4.927 c 50.3611,0 91.1877,2.7661 91.1877,6.1784 0,3.4124 -40.8266,6.1795 -91.1877,6.1795 -50.36111,0 -91.1864,-2.7671 -91.1864,-6.1795 0,-3.4123 40.82529,-6.1784 91.1864,-6.1784 z"
         id="path6345"
         inkscape:connector-curvature="0" />
    </g>
    <path
       style="color:#000000;fill:#bcbdbc;fill-opacity:1;fill-rule:nonzero;stroke:none;stroke-width:16;marker:none;visibility:visible;display:inline;overflow:visible;enable-background:accumulate"
       d="m 532.05351,2377.8184 c -2.7536,-0.016 -5.7208,1.2975 -6.5957,4.0547 -1.5467,4.5124 0.03,9.2468 -0.016,13.8574 0.3662,6.635 0.4909,13.6418 3.7988,19.6035 5.8398,9.69 15.679,16.4505 26.2559,20.0703 4.7842,1.5213 10.2101,2.3429 14.9609,0.2852 0.5771,-0.2854 1.0252,-0.7307 1.3692,-1.25 5.5335,4.7407 11.087,9.4518 16.3086,14.6543 -0.304,2.716 -0.5851,5.4317 -0.8574,8.1445 -0.639,3.8999 -1.3731,7.7943 -2.129,11.6875 -1.593,-0.5361 -3.1022,-1.325 -4.4492,-2.4023 -15.0568,-8.3565 -33.6005,-11.51 -50.1465,-5.875 -12.7665,3.9263 -24.1898,13.3339 -28.8339,26.0722 -7.2635,17.2371 -6.1292,36.9441 -0.5391,54.4825 10.0268,31.4567 35.1139,58.1457 66.5762,68.6835 7.3332,2.4901 14.9397,-0.6837 21.5644,-3.7539 8.5325,-4.3757 18.0449,-7.2604 27.7168,-6.7148 9.952,0.1924 20.2683,3.1437 29.961,-0.377 7.3561,-3.1997 12.1835,-9.9949 16.8496,-16.2109 16.1314,-23.3397 21.3253,-53.4071 15.8847,-81.0742 -2.5199,-12.0821 -8.2256,-24.1242 -18.4668,-31.4981 -7.8311,-5.948 -17.2078,-9.5621 -26.7636,-11.6172 -12.5473,-2.3476 -25.3956,2.0842 -35.7051,9.127 -2.2964,1.1781 -4.8745,1.8546 -7.4668,1.9824 7.9708,-19.1094 15.9413,-38.2187 23.9121,-57.3281 -2.9778,-2.0348 -6.9655,-4.154 -12.0195,-3.959 -6.0722,1.3964 -6.6788,5.5409 -8.0684,8.6563 -3.4621,8.8058 -5.1999,17.7644 -6.3828,26.748 -5.0381,-4.0639 -10.351,-7.9594 -15.6582,-11.8594 1.2767,-1.8071 2.9233,-3.3828 3.5879,-5.5527 1.8699,-4.8026 1.9321,-10.1787 0.8847,-15.1777 -1.1752,-4.9665 -3.7222,-9.5017 -6.7187,-13.5899 -10.8097,-9.3702 -23.8348,-16.1338 -37.6543,-19.7812 -0.378,-0.056 -0.7668,-0.086 -1.1602,-0.088 z"
       id="path6378"
       inkscape:connector-curvature="0" />
    <path
       id="path6424"
       transform="translate(0,-347.63782)"
       d="M -186.01562 2633.7812 C -199.54939 2633.892 -213.15985 2633.8739 -226.59766 2635.0488 C -230.43652 2635.4852 -235.4797 2635.4235 -237.78906 2637.8535 C -238.15469 2638.2067 -238.38449 2638.5819 -238.49805 2638.9648 C -238.57175 2639.2172 -238.59757 2650.091 -238.57617 2650.3457 C -238.44132 2651.9467 -236.5062 2653.5101 -234.07812 2653.9922 C -233.41583 2654.0737 -232.7494 2654.1346 -232.08594 2654.2109 C -239.54036 2658.1008 -243.9707 2662.9506 -243.9707 2668.2109 L -243.9707 2793.7871 C -243.9707 2806.5874 -217.77659 2816.9629 -185.46484 2816.9629 C -153.1531 2816.9629 -126.95898 2806.5874 -126.95898 2793.7871 L -126.95898 2668.2109 C -126.95898 2662.9875 -131.32404 2658.1689 -138.68359 2654.293 C -138.18649 2654.2262 -137.68937 2654.162 -137.19336 2654.0898 C -134.29267 2653.8948 -132.48386 2652.1164 -132.35352 2650.3516 C -132.33542 2650.1064 -132.35024 2639.2423 -132.39844 2639.002 C -132.60204 2637.988 -133.41047 2637.0553 -134.94141 2636.5273 C -151.46298 2633.2471 -168.97798 2634.1611 -186.01562 2633.7812 z M -185.4082 2637.2598 C -158.79586 2637.2598 -137.2207 2638.3055 -137.2207 2639.5957 C -137.2207 2640.8858 -158.79586 2641.9336 -185.4082 2641.9336 C -212.02056 2641.9336 -233.59375 2640.8858 -233.59375 2639.5957 C -233.59375 2638.3055 -212.02056 2637.2598 -185.4082 2637.2598 z M -215.57617 2683.332 C -215.37482 2683.333 -215.1759 2683.347 -214.98242 2683.377 C -207.90908 2685.2439 -201.24179 2688.706 -195.70898 2693.502 C -194.17525 2695.5946 -192.87106 2697.9149 -192.26953 2700.457 C -191.73344 2703.0156 -191.76558 2705.7685 -192.72266 2708.2266 C -193.06283 2709.3371 -193.90512 2710.1435 -194.55859 2711.0684 C -191.84215 2713.0645 -189.12362 2715.0586 -186.54492 2717.1387 C -185.93948 2712.5406 -185.04936 2707.9545 -183.27734 2703.4473 C -182.56608 2701.8527 -182.25642 2699.7323 -179.14844 2699.0176 C -176.56161 2698.9177 -174.52025 2700.0015 -172.99609 2701.043 C -177.07585 2710.8239 -181.15463 2720.6057 -185.23438 2730.3867 C -183.90754 2730.3213 -182.58749 2729.9742 -181.41211 2729.3711 C -176.13532 2725.7665 -169.56085 2723.4977 -163.13867 2724.6992 C -158.24764 2725.7512 -153.44769 2727.6021 -149.43945 2730.6465 C -144.1976 2734.4208 -141.27611 2740.5834 -139.98633 2746.7676 C -137.20163 2760.9287 -139.86053 2776.3196 -148.11719 2788.2656 C -150.50548 2791.4473 -152.97705 2794.9247 -156.74219 2796.5625 C -161.70329 2798.3645 -166.98237 2796.8549 -172.07617 2796.7559 C -177.02663 2796.4767 -181.89641 2797.9516 -186.26367 2800.1914 C -189.65445 2801.7627 -193.54737 2803.388 -197.30078 2802.1133 C -213.40438 2796.7197 -226.24487 2783.0598 -231.37695 2766.959 C -234.23819 2757.9821 -234.8193 2747.8949 -231.10156 2739.0723 C -228.72454 2732.5524 -222.87813 2727.7381 -216.34375 2725.7285 C -207.87487 2722.8443 -198.38242 2724.4572 -190.67578 2728.7344 C -189.98634 2729.2859 -189.2138 2729.6903 -188.39844 2729.9648 C -188.01153 2727.9722 -187.63566 2725.9785 -187.30859 2723.9824 C -187.16922 2722.5938 -187.02669 2721.2047 -186.87109 2719.8145 C -189.5437 2717.1516 -192.38455 2714.7388 -195.2168 2712.3125 C -195.39287 2712.5781 -195.62257 2712.807 -195.91797 2712.9531 C -198.34961 2714.0063 -201.12744 2713.5853 -203.57617 2712.8066 C -208.98984 2710.9538 -214.02659 2707.4949 -217.01562 2702.5352 C -218.70875 2699.4838 -218.77154 2695.896 -218.95898 2692.5 C -218.93558 2690.1401 -219.74283 2687.7177 -218.95117 2685.4082 C -218.50336 2683.997 -216.98557 2683.319 -215.57617 2683.332 z "
       style="color:#000000;fill:#4d4f53;fill-opacity:1;fill-rule:nonzero;stroke:none;stroke-width:16;marker:none;visibility:visible;display:inline;overflow:visible;enable-background:accumulate" />
  </g>
</svg>
