<?xml version="1.0" encoding="UTF-8" standalone="no"?>
<!-- Created with Inkscape (http://www.inkscape.org/) -->

<svg
   xmlns:dc="http://purl.org/dc/elements/1.1/"
   xmlns:cc="http://creativecommons.org/ns#"
   xmlns:rdf="http://www.w3.org/1999/02/22-rdf-syntax-ns#"
   xmlns:svg="http://www.w3.org/2000/svg"
   xmlns="http://www.w3.org/2000/svg"
   xmlns:sodipodi="http://sodipodi.sourceforge.net/DTD/sodipodi-0.dtd"
   xmlns:inkscape="http://www.inkscape.org/namespaces/inkscape"
   width="117.01172"
   height="183.1817"
   id="svg11823"
   version="1.1"
   inkscape:version="0.49 r12590 custom"
   sodipodi:docname="lurc-logo-simple.svg"
   viewBox="0 0 117.01172 183.1817">
  <defs
     id="defs11825" />
  <sodipodi:namedview
     id="base"
     pagecolor="#ffffff"
     bordercolor="#666666"
     borderopacity="1.0"
     inkscape:pageopacity="1"
     inkscape:pageshadow="2"
     inkscape:zoom="1.6837001"
     inkscape:cx="-7.0636992"
     inkscape:cy="121.28197"
     inkscape:document-units="px"
     inkscape:current-layer="layer1"
     showgrid="false"
     borderlayer="true"
     inkscape:showpageshadow="false"
     showguides="true"
     inkscape:guide-bbox="true"
     inkscape:snap-global="false"
     inkscape:snap-bbox="true"
     inkscape:bbox-paths="true"
     inkscape:bbox-nodes="true"
     inkscape:snap-bbox-edge-midpoints="true"
     inkscape:snap-bbox-midpoints="true"
     inkscape:snap-intersection-paths="true"
     inkscape:object-paths="true"
     inkscape:object-nodes="true"
     inkscape:snap-smooth-nodes="true"
     inkscape:snap-midpoints="true"
     inkscape:snap-object-midpoints="true"
     inkscape:snap-center="true"
     inkscape:snap-page="true"
     fit-margin-top="0"
     fit-margin-left="0"
     fit-margin-right="0"
     fit-margin-bottom="0" />
  <metadata
     id="metadata11828">
    <rdf:RDF>
      <cc:Work
         rdf:about="">
        <dc:format>image/svg+xml</dc:format>
        <dc:type
           rdf:resource="http://purl.org/dc/dcmitype/StillImage" />
        <dc:title />
      </cc:Work>
    </rdf:RDF>
  </metadata>
  <g
     inkscape:label="Layer 1"
     inkscape:groupmode="layer"
     id="layer1"
     transform="translate(-285.81488,-2286.1434)">
    <path
       style="color:#000000;fill:#4d4f53;fill-opacity:1;fill-rule:nonzero;stroke:none;stroke-width:16;marker:none;visibility:visible;display:inline;overflow:visible;enable-background:accumulate"
       d="m 343.76994,2286.1434 c -13.53377,0.1108 -27.14423,0.093 -40.58204,1.2676 -3.83886,0.4364 -8.88204,0.3747 -11.1914,2.8047 -0.36563,0.3532 -0.59543,0.7284 -0.70899,1.1113 -0.0737,0.2524 -0.0995,11.1262 -0.0781,11.3809 0.13485,1.601 2.06997,3.1644 4.49805,3.6465 0.66229,0.081 1.32872,0.1424 1.99218,0.2187 -7.45442,3.8899 -11.88476,8.7397 -11.88476,14 l 0,125.5762 c 0,12.8003 26.19411,23.1758 58.50586,23.1758 32.31174,0 58.50586,-10.3755 58.50586,-23.1758 l 0,-125.5762 c 0,-5.2234 -4.36506,-10.042 -11.72461,-13.9179 0.4971,-0.067 0.99422,-0.131 1.49023,-0.2032 2.90069,-0.195 4.7095,-1.9734 4.83984,-3.7382 0.0181,-0.2452 0.003,-11.1093 -0.0449,-11.3496 -0.2036,-1.014 -1.01203,-1.9467 -2.54297,-2.4747 -16.52157,-3.2802 -34.03657,-2.3662 -51.07421,-2.7461 z m 0.81756,4.5285 c 22.53225,0 44.82766,1.1617 44.82766,2.3359 0,1.1742 -22.29541,2.3379 -44.82766,2.3379 -22.53227,0 -44.82585,-1.1637 -44.82585,-2.3379 0,-1.1742 22.29358,-2.3359 44.82585,-2.3359 z m -30.37811,45.0223 c 0.20135,0 0.40027,0.015 0.59375,0.045 7.07334,1.8669 13.74063,5.329 19.27344,10.125 1.53373,2.0926 2.83792,4.4129 3.43945,6.955 0.53609,2.5586 0.50395,5.3115 -0.45313,7.7696 -0.34017,1.1105 -1.18246,1.9169 -1.83593,2.8418 2.71644,1.9961 5.43497,3.9902 8.01367,6.0703 0.60544,-4.5981 1.49556,-9.1842 3.26758,-13.6914 0.71126,-1.5946 1.02092,-3.715 4.1289,-4.4297 2.58683,-0.1 4.62819,0.9839 6.15235,2.0254 -4.07976,9.7809 -8.15854,19.5627 -12.23829,29.3437 1.32684,-0.065 2.64689,-0.4125 3.82227,-1.0156 5.27679,-3.6046 11.85126,-5.8734 18.27344,-4.6719 4.89103,1.052 9.69098,2.9029 13.69922,5.9473 5.24185,3.7743 8.16334,9.9369 9.45312,16.1211 2.7847,14.1611 0.1258,29.552 -8.13086,41.498 -2.38829,3.1817 -4.85986,6.6591 -8.625,8.2969 -4.9611,1.802 -10.24018,0.2924 -15.33398,0.1934 -4.95046,-0.2792 -9.82024,1.1957 -14.1875,3.4355 -3.39078,1.5713 -7.2837,3.1966 -11.03711,1.9219 -16.1036,-5.3936 -28.94409,-19.0535 -34.07617,-35.1543 -2.86124,-8.9769 -3.44235,-19.0641 0.27539,-27.8867 2.37702,-6.5199 8.22343,-11.3342 14.75781,-13.3438 8.46888,-2.8842 17.96133,-1.2713 25.66797,3.0059 0.68944,0.5515 1.46198,0.9559 2.27734,1.2304 0.38691,-1.9926 0.76278,-3.9863 1.08985,-5.9824 0.13937,-1.3886 0.2819,-2.7777 0.4375,-4.1679 -2.67261,-2.6629 -5.51346,-5.0757 -8.34571,-7.502 -0.17607,0.2656 -0.40577,0.4945 -0.70117,0.6406 -2.43164,1.0532 -5.20947,0.6322 -7.6582,-0.1465 -5.41367,-1.8528 -10.45042,-5.3117 -13.43945,-10.2714 -1.69313,-3.0514 -1.75592,-6.6392 -1.94336,-10.0352 0.0234,-2.3599 -0.78385,-4.7823 0.008,-7.0918 0.44781,-1.4112 1.9656,-2.0892 3.375,-2.0762 z"
       id="path6397"
       inkscape:connector-curvature="0"
       sodipodi:nodetypes="cccccccssssscccccccsssssccccccccccccccccccccccccccccccccccc" />
  </g>
</svg>
